<svg width="442" height="57" viewBox="0 0 442 57" fill="none" xmlns="http://www.w3.org/2000/svg">
<path d="M31.528 44.984L44.2 13.736C44.92 11.96 45.424 10.568 45.712 9.56C46 8.552 46.144 7.64 46.144 6.824C46.144 5.528 45.736 4.616 44.92 4.088C44.152 3.56 42.688 3.296 40.528 3.296V0.559997H58.024V3.296C56.92 3.44 55.96 3.632 55.144 3.872C54.376 4.112 53.68 4.448 53.056 4.88C52.48 5.312 51.952 5.888 51.472 6.608C51.04 7.28 50.608 8.12 50.176 9.128L30.664 56.72H28.144L9.568 11.864C8.944 10.424 8.32 9.176 7.696 8.12C7.12 7.064 6.472 6.2 5.752 5.528C5.032 4.856 4.216 4.352 3.304 4.016C2.392 3.68 1.312 3.464 0.064 3.368V0.559997H23.536V3.368C22.192 3.368 21.088 3.44 20.224 3.584C19.408 3.68 18.76 3.872 18.28 4.16C17.8 4.4 17.464 4.712 17.272 5.096C17.08 5.48 16.984 5.912 16.984 6.392C16.984 7.064 17.104 7.856 17.344 8.768C17.584 9.632 18.04 10.904 18.712 12.584L31.528 44.984ZM72.0529 45.824C72.0529 47.488 72.1169 48.832 72.2449 49.856C72.4156 50.8373 72.7143 51.6267 73.1409 52.224C73.5676 52.7787 74.1649 53.1627 74.9329 53.376C75.7009 53.5893 76.7249 53.7173 78.0049 53.76V56H59.6369V53.76C60.9169 53.7173 61.9623 53.5893 62.7729 53.376C63.5836 53.12 64.2023 52.736 64.6289 52.224C65.0983 51.6693 65.3969 50.9227 65.5249 49.984C65.6956 49.0027 65.7809 47.7653 65.7809 46.272V38.08C65.7809 35.6053 65.7383 33.5787 65.6529 32C65.6103 30.3787 65.5036 29.2693 65.3329 28.672C65.1196 27.6907 64.6289 27.0293 63.8609 26.688C63.0929 26.304 61.6423 26.112 59.5089 26.112V23.872L72.0529 21.44V45.824ZM64.6929 8.448C64.6929 7.33866 65.0769 6.4 65.8449 5.632C66.6129 4.864 67.5516 4.48 68.6609 4.48C69.7703 4.48 70.7089 4.864 71.4769 5.632C72.2449 6.4 72.6289 7.33866 72.6289 8.448C72.6289 9.55733 72.2449 10.496 71.4769 11.264C70.7089 12.032 69.7703 12.416 68.6609 12.416C67.5516 12.416 66.6129 12.032 65.8449 11.264C65.0769 10.496 64.6929 9.55733 64.6929 8.448ZM92.6494 46.016C92.6494 47.6373 92.7134 48.9387 92.8414 49.92C92.9694 50.9013 93.2254 51.6693 93.6094 52.224C94.0361 52.7787 94.6121 53.1627 95.3374 53.376C96.1054 53.5893 97.1081 53.7173 98.3454 53.76V56H80.6814V53.76C81.9614 53.7173 82.9854 53.5893 83.7534 53.376C84.5214 53.12 85.1188 52.736 85.5454 52.224C86.0148 51.712 86.3134 51.008 86.4414 50.112C86.6121 49.1733 86.6974 47.9573 86.6974 46.464V18.88C86.6974 16.576 86.6548 14.656 86.5694 13.12C86.5268 11.5413 86.4414 10.4747 86.3134 9.92C86.1001 8.93866 85.5881 8.27733 84.7774 7.936C84.0094 7.59466 82.6014 7.424 80.5534 7.424V5.248L92.6494 2.88V46.016ZM113.462 46.016C113.462 47.6373 113.526 48.9387 113.654 49.92C113.782 50.9013 114.038 51.6693 114.422 52.224C114.849 52.7787 115.425 53.1627 116.15 53.376C116.918 53.5893 117.921 53.7173 119.158 53.76V56H101.494V53.76C102.774 53.7173 103.798 53.5893 104.566 53.376C105.334 53.12 105.931 52.736 106.358 52.224C106.827 51.712 107.126 51.008 107.254 50.112C107.425 49.1733 107.51 47.9573 107.51 46.464V18.88C107.51 16.576 107.467 14.656 107.382 13.12C107.339 11.5413 107.254 10.4747 107.126 9.92C106.913 8.93866 106.401 8.27733 105.59 7.936C104.822 7.59466 103.414 7.424 101.366 7.424V5.248L113.462 2.88V46.016ZM154.306 50.048C150.68 54.4427 146.178 56.64 140.802 56.64C138.285 56.64 136.002 56.2347 133.954 55.424C131.906 54.5707 130.136 53.3973 128.642 51.904C127.192 50.368 126.061 48.5547 125.25 46.464C124.44 44.3307 124.034 41.984 124.034 39.424C124.034 36.8213 124.461 34.4107 125.314 32.192C126.168 29.9733 127.362 28.0747 128.898 26.496C130.477 24.9173 132.333 23.68 134.466 22.784C136.642 21.888 139.01 21.44 141.57 21.44C145.709 21.44 148.909 22.5707 151.17 24.832C153.432 27.0507 154.562 30.2507 154.562 34.432C154.562 35.0293 154.434 35.392 154.178 35.52C153.965 35.648 153.432 35.712 152.578 35.712H131.522C131.437 36.0533 131.373 36.48 131.33 36.992C131.288 37.4613 131.266 37.9947 131.266 38.592C131.266 40.8107 131.522 42.8373 132.034 44.672C132.589 46.464 133.357 48 134.338 49.28C135.362 50.56 136.557 51.5627 137.922 52.288C139.33 52.9707 140.888 53.312 142.594 53.312C144.386 53.312 146.05 52.928 147.586 52.16C149.122 51.3493 150.701 50.048 152.322 48.256L154.306 50.048ZM143.746 32.768C144.6 32.768 145.282 32.7467 145.794 32.704C146.306 32.6613 146.69 32.576 146.946 32.448C147.202 32.32 147.373 32.1493 147.458 31.936C147.544 31.68 147.586 31.36 147.586 30.976C147.586 29.0133 146.946 27.456 145.666 26.304C144.429 25.1093 142.722 24.512 140.546 24.512C135.938 24.512 133.08 27.264 131.97 32.768H143.746ZM171.41 45.952C171.41 47.7013 171.453 49.088 171.538 50.112C171.623 51.0933 171.837 51.8613 172.178 52.416C172.562 52.928 173.095 53.2693 173.778 53.44C174.503 53.6107 175.485 53.7387 176.722 53.824V56H159.954V53.824C161.149 53.7387 162.087 53.6107 162.77 53.44C163.495 53.2693 164.05 52.928 164.434 52.416C164.818 51.904 165.053 51.1787 165.138 50.24C165.266 49.3013 165.33 48.0213 165.33 46.4V37.888C165.33 32.8107 165.202 29.7173 164.946 28.608C164.818 28.0533 164.647 27.6053 164.434 27.264C164.263 26.88 163.986 26.6027 163.602 26.432C163.218 26.2187 162.727 26.0907 162.13 26.048C161.533 25.9627 160.765 25.92 159.826 25.92V23.872L170.066 21.44L170.834 27.776H171.09C172.711 25.7707 174.61 24.2133 176.786 23.104C178.962 21.9947 181.33 21.44 183.89 21.44C185.853 21.44 187.645 21.76 189.266 22.4C190.887 23.04 192.125 23.9147 192.978 25.024C193.703 26.0053 194.215 27.2853 194.514 28.864C194.813 30.4 194.962 32.5333 194.962 35.264V45.952C194.962 47.7013 195.005 49.088 195.09 50.112C195.218 51.0933 195.453 51.8613 195.794 52.416C196.135 52.928 196.647 53.2693 197.33 53.44C198.055 53.6107 198.994 53.7387 200.146 53.824V56H183.57V53.824C184.765 53.7813 185.703 53.6747 186.386 53.504C187.111 53.2907 187.645 52.928 187.986 52.416C188.37 51.904 188.605 51.1787 188.69 50.24C188.818 49.2587 188.882 47.9787 188.882 46.4V37.952C188.882 35.52 188.754 33.472 188.498 31.808C188.242 30.144 187.815 28.8 187.218 27.776C186.663 26.752 185.917 26.0267 184.978 25.6C184.039 25.1307 182.909 24.896 181.586 24.896C179.666 24.896 177.895 25.408 176.274 26.432C174.695 27.4133 173.458 28.7787 172.562 30.528C172.349 30.9547 172.157 31.36 171.986 31.744C171.858 32.128 171.751 32.576 171.666 33.088C171.581 33.6 171.517 34.1973 171.474 34.88C171.431 35.52 171.41 36.352 171.41 37.376V45.952ZM235.119 50.048C231.492 54.4427 226.991 56.64 221.615 56.64C219.098 56.64 216.815 56.2347 214.767 55.424C212.719 54.5707 210.948 53.3973 209.455 51.904C208.004 50.368 206.874 48.5547 206.063 46.464C205.252 44.3307 204.847 41.984 204.847 39.424C204.847 36.8213 205.274 34.4107 206.127 32.192C206.98 29.9733 208.175 28.0747 209.711 26.496C211.29 24.9173 213.146 23.68 215.279 22.784C217.455 21.888 219.823 21.44 222.383 21.44C226.522 21.44 229.722 22.5707 231.983 24.832C234.244 27.0507 235.375 30.2507 235.375 34.432C235.375 35.0293 235.247 35.392 234.991 35.52C234.778 35.648 234.244 35.712 233.391 35.712H212.335C212.25 36.0533 212.186 36.48 212.143 36.992C212.1 37.4613 212.079 37.9947 212.079 38.592C212.079 40.8107 212.335 42.8373 212.847 44.672C213.402 46.464 214.17 48 215.151 49.28C216.175 50.56 217.37 51.5627 218.735 52.288C220.143 52.9707 221.7 53.312 223.407 53.312C225.199 53.312 226.863 52.928 228.399 52.16C229.935 51.3493 231.514 50.048 233.135 48.256L235.119 50.048ZM224.559 32.768C225.412 32.768 226.095 32.7467 226.607 32.704C227.119 32.6613 227.503 32.576 227.759 32.448C228.015 32.32 228.186 32.1493 228.271 31.936C228.356 31.68 228.399 31.36 228.399 30.976C228.399 29.0133 227.759 27.456 226.479 26.304C225.242 25.1093 223.535 24.512 221.359 24.512C216.751 24.512 213.892 27.264 212.783 32.768H224.559ZM268.03 32.32C268.03 30.5707 267.988 29.2053 267.902 28.224C267.817 27.2 267.582 26.432 267.198 25.92C266.857 25.3653 266.324 25.0027 265.598 24.832C264.916 24.6187 263.956 24.448 262.718 24.32V22.08H274.302V41.728C274.302 44.16 274.324 46.144 274.366 47.68C274.452 49.216 274.558 50.368 274.686 51.136C274.772 51.6907 274.9 52.1387 275.07 52.48C275.284 52.7787 275.582 53.0347 275.966 53.248C276.35 53.4187 276.841 53.5467 277.438 53.632C278.078 53.6747 278.889 53.696 279.87 53.696V55.936L269.31 56.704L268.606 49.024H268.35C266.729 51.6693 264.852 53.6107 262.718 54.848C260.628 56.0427 258.43 56.64 256.126 56.64C254.334 56.64 252.585 56.2987 250.878 55.616C249.214 54.9333 247.956 54.016 247.102 52.864C246.377 51.9253 245.844 50.624 245.502 48.96C245.204 47.296 245.054 45.1413 245.054 42.496V32.32C245.054 30.5707 245.012 29.2053 244.926 28.224C244.841 27.2 244.606 26.432 244.222 25.92C243.881 25.3653 243.348 25.0027 242.622 24.832C241.94 24.6187 240.98 24.448 239.742 24.32V22.08H251.326V39.552C251.326 44.2027 251.86 47.5733 252.926 49.664C254.036 51.7547 255.785 52.8 258.174 52.8C261.929 52.8 264.852 50.3467 266.942 45.44C267.156 44.928 267.326 44.4587 267.454 44.032C267.582 43.6053 267.689 43.136 267.774 42.624C267.86 42.112 267.924 41.536 267.966 40.896C268.009 40.256 268.03 39.488 268.03 38.592V32.32ZM287.929 30.016C287.417 28.736 286.948 27.7333 286.521 27.008C286.137 26.24 285.711 25.664 285.241 25.28C284.772 24.896 284.239 24.6613 283.641 24.576C283.087 24.448 282.404 24.3627 281.593 24.32V22.08H298.553V24.32C297.7 24.3627 296.996 24.4053 296.441 24.448C295.887 24.4907 295.439 24.5973 295.097 24.768C294.799 24.896 294.585 25.1093 294.457 25.408C294.329 25.664 294.265 26.048 294.265 26.56C294.265 27.2853 294.351 27.968 294.521 28.608C294.735 29.248 294.948 29.888 295.161 30.528L301.945 49.088H302.201L308.025 35.328C308.921 33.1947 309.561 31.488 309.945 30.208C310.329 28.928 310.521 27.7973 310.521 26.816C310.521 25.8347 310.265 25.1733 309.753 24.832C309.241 24.4907 308.132 24.32 306.425 24.32V22.08H319.161V24.32C318.479 24.32 317.86 24.4907 317.305 24.832C316.751 25.1733 316.26 25.6 315.833 26.112C315.492 26.5813 315.129 27.2213 314.745 28.032C314.404 28.8 314.041 29.6107 313.657 30.464C313.316 31.3173 312.996 32.1707 312.697 33.024C312.399 33.8347 312.121 34.496 311.865 35.008L302.457 56.704H298.745L287.929 30.016ZM339.698 21.44C342.13 21.44 344.434 21.888 346.61 22.784C348.786 23.6373 350.685 24.832 352.306 26.368C353.97 27.904 355.272 29.7387 356.21 31.872C357.192 33.9627 357.682 36.2667 357.682 38.784C357.682 41.3867 357.192 43.776 356.21 45.952C355.272 48.128 353.97 50.0053 352.306 51.584C350.685 53.1627 348.786 54.4 346.61 55.296C344.434 56.192 342.13 56.64 339.698 56.64C337.309 56.64 335.026 56.2133 332.85 55.36C330.717 54.464 328.84 53.2267 327.218 51.648C325.597 50.0693 324.317 48.192 323.378 46.016C322.44 43.7973 321.97 41.3867 321.97 38.784C321.97 36.2667 322.44 33.9413 323.378 31.808C324.317 29.6747 325.597 27.84 327.218 26.304C328.84 24.768 330.717 23.5733 332.85 22.72C335.026 21.8667 337.309 21.44 339.698 21.44ZM339.698 24.512C338.12 24.512 336.669 24.8533 335.346 25.536C334.066 26.2187 332.957 27.2 332.018 28.48C331.122 29.7173 330.418 31.232 329.906 33.024C329.437 34.7733 329.202 36.7147 329.202 38.848C329.202 41.0667 329.437 43.072 329.906 44.864C330.418 46.656 331.122 48.192 332.018 49.472C332.957 50.7093 334.066 51.6693 335.346 52.352C336.626 53.0347 338.077 53.376 339.698 53.376C341.32 53.376 342.792 53.0347 344.114 52.352C345.437 51.6693 346.568 50.688 347.506 49.408C348.445 48.128 349.17 46.592 349.682 44.8C350.194 43.008 350.45 41.024 350.45 38.848C350.45 36.7147 350.194 34.7733 349.682 33.024C349.17 31.2747 348.445 29.7813 347.506 28.544C346.568 27.264 345.437 26.2827 344.114 25.6C342.792 24.8747 341.32 24.512 339.698 24.512ZM375.365 45.824C375.365 47.488 375.429 48.832 375.557 49.856C375.728 50.8373 376.027 51.6267 376.453 52.224C376.88 52.7787 377.477 53.1627 378.245 53.376C379.013 53.5893 380.037 53.7173 381.317 53.76V56H362.949V53.76C364.229 53.7173 365.275 53.5893 366.085 53.376C366.896 53.12 367.515 52.736 367.941 52.224C368.411 51.6693 368.709 50.9227 368.837 49.984C369.008 49.0027 369.093 47.7653 369.093 46.272V38.08C369.093 35.6053 369.051 33.5787 368.965 32C368.923 30.3787 368.816 29.2693 368.645 28.672C368.432 27.6907 367.941 27.0293 367.173 26.688C366.405 26.304 364.955 26.112 362.821 26.112V23.872L375.365 21.44V45.824ZM368.005 8.448C368.005 7.33866 368.389 6.4 369.157 5.632C369.925 4.864 370.864 4.48 371.973 4.48C373.083 4.48 374.021 4.864 374.789 5.632C375.557 6.4 375.941 7.33866 375.941 8.448C375.941 9.55733 375.557 10.496 374.789 11.264C374.021 12.032 373.083 12.416 371.973 12.416C370.864 12.416 369.925 12.032 369.157 11.264C368.389 10.496 368.005 9.55733 368.005 8.448Z" fill="#E5E5E5"/>
<path d="M432.626 48.152C435.122 51.56 438.17 53.264 441.77 53.264V56H417.218V53.264C419.378 53.264 420.842 53.072 421.61 52.688C422.426 52.256 422.834 51.68 422.834 50.96C422.834 50.624 422.786 50.288 422.69 49.952C422.642 49.568 422.474 49.112 422.186 48.584C421.946 48.056 421.586 47.408 421.106 46.64C420.626 45.872 419.978 44.864 419.162 43.616L410.954 31.376L404.762 39.152C403.274 41.024 402.026 42.632 401.018 43.976C400.01 45.32 399.194 46.472 398.57 47.432C397.994 48.392 397.562 49.184 397.274 49.808C397.034 50.432 396.914 50.96 396.914 51.392C396.914 52.112 397.322 52.616 398.138 52.904C398.954 53.144 400.49 53.264 402.746 53.264V56H382.73V53.264C383.882 53.264 384.914 53.144 385.826 52.904C386.786 52.664 387.722 52.28 388.634 51.752C389.546 51.176 390.458 50.432 391.37 49.52C392.33 48.56 393.362 47.384 394.466 45.992L408.578 27.992L393.962 8.048C392.762 6.368 391.418 5.168 389.93 4.448C388.442 3.68 386.666 3.296 384.602 3.296V0.559997H408.506V3.296C405.386 3.296 403.826 4.232 403.826 6.104C403.826 7.304 404.498 8.888 405.842 10.856L413.69 22.52L420.746 13.592C422.09 11.912 423.026 10.544 423.554 9.488C424.082 8.432 424.346 7.424 424.346 6.464C424.346 5.264 423.938 4.448 423.122 4.016C422.354 3.536 420.962 3.296 418.946 3.296V0.559997H438.746V3.296C437.594 3.296 436.586 3.392 435.722 3.584C434.906 3.728 434.114 4.064 433.346 4.592C432.578 5.12 431.738 5.888 430.826 6.896C429.914 7.904 428.81 9.248 427.514 10.928L416.066 25.688L432.626 48.152Z" fill="#FDF53E"/>
</svg>
