<svg width="138" height="57" viewBox="0 0 138 57" fill="none" xmlns="http://www.w3.org/2000/svg">
<path d="M31.528 44.984L44.2 13.736C44.92 11.96 45.424 10.568 45.712 9.56C46 8.552 46.144 7.64 46.144 6.824C46.144 5.528 45.736 4.616 44.92 4.088C44.152 3.56 42.688 3.296 40.528 3.296V0.559997H58.024V3.296C56.92 3.44 55.96 3.632 55.144 3.872C54.376 4.112 53.68 4.448 53.056 4.88C52.48 5.312 51.952 5.888 51.472 6.608C51.04 7.28 50.608 8.12 50.176 9.128L30.664 56.72H28.144L9.568 11.864C8.944 10.424 8.32 9.176 7.696 8.12C7.12 7.064 6.472 6.2 5.752 5.528C5.032 4.856 4.216 4.352 3.304 4.016C2.392 3.68 1.312 3.464 0.064 3.368V0.559997H23.536V3.368C22.192 3.368 21.088 3.44 20.224 3.584C19.408 3.68 18.76 3.872 18.28 4.16C17.8 4.4 17.464 4.712 17.272 5.096C17.08 5.48 16.984 5.912 16.984 6.392C16.984 7.064 17.104 7.856 17.344 8.768C17.584 9.632 18.04 10.904 18.712 12.584L31.528 44.984Z" fill="#E6E6E6"/>
<path d="M128.173 48.152C130.669 51.56 133.717 53.264 137.317 53.264V56H112.765V53.264C114.925 53.264 116.389 53.072 117.157 52.688C117.973 52.256 118.381 51.68 118.381 50.96C118.381 50.624 118.333 50.288 118.237 49.952C118.189 49.568 118.021 49.112 117.733 48.584C117.493 48.056 117.133 47.408 116.653 46.64C116.173 45.872 115.525 44.864 114.709 43.616L106.501 31.376L100.309 39.152C98.8208 41.024 97.5728 42.632 96.5648 43.976C95.5568 45.32 94.7408 46.472 94.1168 47.432C93.5408 48.392 93.1088 49.184 92.8208 49.808C92.5808 50.432 92.4608 50.96 92.4608 51.392C92.4608 52.112 92.8688 52.616 93.6848 52.904C94.5008 53.144 96.0368 53.264 98.2928 53.264V56H78.2768V53.264C79.4288 53.264 80.4608 53.144 81.3728 52.904C82.3328 52.664 83.2688 52.28 84.1808 51.752C85.0928 51.176 86.0048 50.432 86.9168 49.52C87.8768 48.56 88.9088 47.384 90.0128 45.992L104.125 27.992L89.5088 8.048C88.3088 6.368 86.9648 5.168 85.4768 4.448C83.9888 3.68 82.2128 3.296 80.1488 3.296V0.559997H104.053V3.296C100.933 3.296 99.3728 4.232 99.3728 6.104C99.3728 7.304 100.045 8.888 101.389 10.856L109.237 22.52L116.293 13.592C117.637 11.912 118.573 10.544 119.101 9.488C119.629 8.432 119.893 7.424 119.893 6.464C119.893 5.264 119.485 4.448 118.669 4.016C117.901 3.536 116.509 3.296 114.493 3.296V0.559997H134.293V3.296C133.141 3.296 132.133 3.392 131.269 3.584C130.453 3.728 129.661 4.064 128.893 4.592C128.125 5.12 127.285 5.888 126.373 6.896C125.461 7.904 124.357 9.248 123.061 10.928L111.613 25.688L128.173 48.152Z" fill="#FDF53E"/>
</svg>
